<?xml version="1.0" encoding="UTF-8"?>
<!DOCTYPE svg PUBLIC "-//W3C//DTD SVG 1.1//EN" "http://www.w3.org/Graphics/SVG/1.1/DTD/svg11.dtd">
<!-- Creator: CorelDRAW 2018 (64 Bit Versión de evaluación) -->
<svg xmlns="http://www.w3.org/2000/svg" xml:space="preserve" width="0.135917in" height="0.256933in" version="1.1" style="shape-rendering:geometricPrecision; text-rendering:geometricPrecision; image-rendering:optimizeQuality; fill-rule:evenodd; clip-rule:evenodd"
viewBox="0 0 1.82 3.45"
 xmlns:xlink="http://www.w3.org/1999/xlink">
 <defs>
  <style type="text/css">
   <![CDATA[
    .str0 {stroke:white;stroke-width:0.13;stroke-miterlimit:2.61313}
    .fil0 {fill:white}
   ]]>
  </style>
 </defs>
 <g id="Capa_x0020_1">
  <metadata id="CorelCorpID_0Corel-Layer"/>
  <g id="_2235838415984">
   <path class="fil0 str0" d="M0.89 3.25c0.01,0.04 0.08,0.17 0.16,0.12l0.15 -0.15c0.09,-0.09 0.19,-0.24 0.26,-0.35 0.16,-0.26 0.27,-0.58 0.3,-0.94 0.03,-0.38 -0.05,-0.73 -0.18,-1.04 -0.12,-0.29 -0.37,-0.6 -0.6,-0.78 -0.04,-0.03 -0.06,-0.05 -0.11,-0 -0.1,0.12 -0.02,0.15 0.02,0.18 0.33,0.27 0.59,0.74 0.65,1.19 0.07,0.53 -0.06,1.04 -0.36,1.45 -0.05,0.06 -0.09,0.12 -0.14,0.17 -0.04,0.05 -0.13,0.11 -0.16,0.16z"/>
   <path class="fil0 str0" d="M0.47 2.84c0.01,0.05 0.05,0.1 0.09,0.12 0.05,0.02 0.2,-0.15 0.24,-0.19 0.47,-0.54 0.49,-1.38 0.06,-1.94 -0.07,-0.1 -0.14,-0.15 -0.21,-0.23 -0.04,-0.04 -0.07,-0.07 -0.12,-0.01 -0.13,0.14 0,0.11 0.19,0.37 0.36,0.5 0.35,1.19 -0.03,1.65 -0.05,0.06 -0.19,0.19 -0.21,0.23z"/>
   <path class="fil0 str0" d="M0.17 2.54c0.04,-0.01 0.07,-0.03 0.09,-0.05 0.33,-0.33 0.43,-0.78 0.2,-1.21 -0.04,-0.08 -0.22,-0.33 -0.31,-0.29 -0,0 -0.14,0.09 -0.05,0.17 0.06,0.05 0.1,0.09 0.15,0.16 0.21,0.3 0.18,0.71 -0.08,0.99 -0.03,0.03 -0.06,0.05 -0.09,0.08 -0.06,0.06 0.03,0.14 0.08,0.16z"/>
  </g>
 </g>
</svg>
